{
	"asset":{
		"generator":"Khronos glTF Blender I/O v4.0.44",
		"version":"2.0"
	},
	"extensionsUsed":[
		"KHR_materials_emissive_strength"
	],
	"scene":0,
	"scenes":[
		{
			"name":"Scene",
			"nodes":[
				0,
				1
			]
		}
	],
	"nodes":[
		{
			"mesh":0,
			"name":"Mball.013",
			"rotation":[
				-0.7059674263000488,
				0.04012502729892731,
				-0.04012502729892731,
				0.705967366695404
			],
			"translation":[
				2.4796717166900635,
				9.803529739379883,
				-2.8099770545959473
			]
		},
		{
			"mesh":1,
			"name":"Plane",
			"scale":[
				117.35600280761719,
				117.35600280761719,
				117.35600280761719
			],
			"translation":[
				0,
				-3.367090940475464,
				0
			]
		}
	],
	"animations":[
		{
			"channels":[
				{
					"sampler":0,
					"target":{
						"node":0,
						"path":"rotation"
					}
				}
			],
			"name":"Mball.013Action.001",
			"samplers":[
				{
					"input":7,
					"interpolation":"LINEAR",
					"output":8
				}
			]
		}
	],
	"materials":[
		{
			"doubleSided":true,
			"emissiveFactor":[
				0.4692772626876831,
				0,
				1
			],
			"extensions":{
				"KHR_materials_emissive_strength":{
					"emissiveStrength":10
				}
			},
			"name":"Material.001",
			"pbrMetallicRoughness":{
				"baseColorFactor":[
					0,
					0,
					0,
					1
				]
			}
		},
		{
			"doubleSided":true,
			"name":"Material.002",
			"pbrMetallicRoughness":{
				"baseColorFactor":[
					0.800000011920929,
					0.800000011920929,
					0.800000011920929,
					1
				],
				"metallicFactor":0,
				"roughnessFactor":0
			}
		}
	],
	"meshes":[
		{
			"name":"Mesh",
			"primitives":[
				{
					"attributes":{
						"POSITION":0,
						"NORMAL":1
					},
					"indices":2,
					"material":0
				}
			]
		},
		{
			"name":"Plane.002",
			"primitives":[
				{
					"attributes":{
						"POSITION":3,
						"NORMAL":4,
						"TEXCOORD_0":5
					},
					"indices":6,
					"material":1
				}
			]
		}
	],
	"accessors":[
		{
			"bufferView":0,
			"componentType":5126,
			"count":1894,
			"max":[
				5.482166290283203,
				7.098097801208496,
				13.366678237915039
			],
			"min":[
				-4.52009391784668,
				-4.459769248962402,
				-9.823007583618164
			],
			"type":"VEC3"
		},
		{
			"bufferView":1,
			"componentType":5126,
			"count":1894,
			"type":"VEC3"
		},
		{
			"bufferView":2,
			"componentType":5123,
			"count":11280,
			"type":"SCALAR"
		},
		{
			"bufferView":3,
			"componentType":5126,
			"count":4,
			"max":[
				1,
				0,
				1
			],
			"min":[
				-1,
				0,
				-1
			],
			"type":"VEC3"
		},
		{
			"bufferView":4,
			"componentType":5126,
			"count":4,
			"type":"VEC3"
		},
		{
			"bufferView":5,
			"componentType":5126,
			"count":4,
			"type":"VEC2"
		},
		{
			"bufferView":6,
			"componentType":5123,
			"count":6,
			"type":"SCALAR"
		},
		{
			"bufferView":7,
			"componentType":5126,
			"count":250,
			"max":[
				10.416666666666666
			],
			"min":[
				0.041666666666666664
			],
			"type":"SCALAR"
		},
		{
			"bufferView":8,
			"componentType":5126,
			"count":250,
			"type":"VEC4"
		}
	],
	"bufferViews":[
		{
			"buffer":0,
			"byteLength":22728,
			"byteOffset":0,
			"target":34962
		},
		{
			"buffer":0,
			"byteLength":22728,
			"byteOffset":22728,
			"target":34962
		},
		{
			"buffer":0,
			"byteLength":22560,
			"byteOffset":45456,
			"target":34963
		},
		{
			"buffer":0,
			"byteLength":48,
			"byteOffset":68016,
			"target":34962
		},
		{
			"buffer":0,
			"byteLength":48,
			"byteOffset":68064,
			"target":34962
		},
		{
			"buffer":0,
			"byteLength":32,
			"byteOffset":68112,
			"target":34962
		},
		{
			"buffer":0,
			"byteLength":12,
			"byteOffset":68144,
			"target":34963
		},
		{
			"buffer":0,
			"byteLength":1000,
			"byteOffset":68156
		},
		{
			"buffer":0,
			"byteLength":4000,
			"byteOffset":69156
		}
	],
	"buffers":[
		{
			"byteLength":73156,
			"uri":"balltest2222.bin"
		}
	]
}
