{
	"asset":{
		"generator":"Khronos glTF Blender I/O v3.5.30",
		"version":"2.0"
	},
	"extensionsUsed":[
		"KHR_materials_emissive_strength"
	],
	"scene":0,
	"scenes":[
		{
			"extras":{
				"sun_pos_properties":{
					"show_surface":0,
					"show_analemmas":0,
					"show_north":0,
					"day_of_year":12,
					"sun_object":{},
					"object_collection":{}
				},
				"keentools_gt_settings":{}
			},
			"name":"Scene",
			"nodes":[
				0,
				1
			]
		}
	],
	"nodes":[
		{
			"mesh":0,
			"name":"Black Hole"
		},
		{
			"extras":{
				"ant_landscape":{}
			},
			"mesh":1,
			"name":"Black Hole LIght part ",
			"scale":[
				3.7465672492980957,
				0.03880840912461281,
				3.7465672492980957
			]
		}
	],
	"animations":[
		{
			"channels":[
				{
					"sampler":0,
					"target":{
						"node":0,
						"path":"translation"
					}
				},
				{
					"sampler":1,
					"target":{
						"node":0,
						"path":"rotation"
					}
				},
				{
					"sampler":2,
					"target":{
						"node":0,
						"path":"scale"
					}
				}
			],
			"name":"Black Hole",
			"samplers":[
				{
					"input":8,
					"interpolation":"LINEAR",
					"output":9
				},
				{
					"input":8,
					"interpolation":"LINEAR",
					"output":10
				},
				{
					"input":8,
					"interpolation":"LINEAR",
					"output":11
				}
			]
		},
		{
			"channels":[
				{
					"sampler":0,
					"target":{
						"node":1,
						"path":"translation"
					}
				},
				{
					"sampler":1,
					"target":{
						"node":1,
						"path":"rotation"
					}
				},
				{
					"sampler":2,
					"target":{
						"node":1,
						"path":"scale"
					}
				}
			],
			"name":"Black Hole LIght part ",
			"samplers":[
				{
					"input":8,
					"interpolation":"LINEAR",
					"output":12
				},
				{
					"input":8,
					"interpolation":"LINEAR",
					"output":13
				},
				{
					"input":8,
					"interpolation":"LINEAR",
					"output":14
				}
			]
		}
	],
	"materials":[
		{
			"doubleSided":true,
			"emissiveFactor":[
				0.031906891614198685,
				0.438101202249527,
				1
			],
			"extensions":{
				"KHR_materials_emissive_strength":{
					"emissiveStrength":5
				}
			},
			"name":"Material.002",
			"pbrMetallicRoughness":{
				"baseColorFactor":[
					0,
					0,
					0,
					1
				]
			}
		},
		{
			"doubleSided":true,
			"name":"Material.003",
			"pbrMetallicRoughness":{}
		}
	],
	"meshes":[
		{
			"name":"Icosphere",
			"primitives":[
				{
					"attributes":{
						"POSITION":0,
						"TEXCOORD_0":1,
						"NORMAL":2
					},
					"indices":3,
					"material":0
				}
			]
		},
		{
			"name":"Cube.001",
			"primitives":[
				{
					"attributes":{
						"POSITION":4,
						"TEXCOORD_0":5,
						"NORMAL":6
					},
					"indices":7,
					"material":1
				}
			]
		}
	],
	"accessors":[
		{
			"bufferView":0,
			"componentType":5126,
			"count":2737,
			"max":[
				1,
				1,
				0.9999999403953552
			],
			"min":[
				-0.9999999403953552,
				-1,
				-0.9999999403953552
			],
			"type":"VEC3"
		},
		{
			"bufferView":1,
			"componentType":5126,
			"count":2737,
			"type":"VEC2"
		},
		{
			"bufferView":2,
			"componentType":5126,
			"count":2737,
			"type":"VEC3"
		},
		{
			"bufferView":3,
			"componentType":5123,
			"count":15360,
			"type":"SCALAR"
		},
		{
			"bufferView":4,
			"componentType":5126,
			"count":24,
			"max":[
				1,
				1,
				1
			],
			"min":[
				-1,
				-1,
				-1
			],
			"type":"VEC3"
		},
		{
			"bufferView":5,
			"componentType":5126,
			"count":24,
			"type":"VEC2"
		},
		{
			"bufferView":6,
			"componentType":5126,
			"count":24,
			"type":"VEC3"
		},
		{
			"bufferView":7,
			"componentType":5123,
			"count":36,
			"type":"SCALAR"
		},
		{
			"bufferView":8,
			"componentType":5126,
			"count":250,
			"max":[
				10.416666666666666
			],
			"min":[
				0.041666666666666664
			],
			"type":"SCALAR"
		},
		{
			"bufferView":9,
			"componentType":5126,
			"count":250,
			"type":"VEC3"
		},
		{
			"bufferView":10,
			"componentType":5126,
			"count":250,
			"type":"VEC4"
		},
		{
			"bufferView":11,
			"componentType":5126,
			"count":250,
			"type":"VEC3"
		},
		{
			"bufferView":12,
			"componentType":5126,
			"count":250,
			"type":"VEC3"
		},
		{
			"bufferView":13,
			"componentType":5126,
			"count":250,
			"type":"VEC4"
		},
		{
			"bufferView":14,
			"componentType":5126,
			"count":250,
			"type":"VEC3"
		}
	],
	"bufferViews":[
		{
			"buffer":0,
			"byteLength":32844,
			"byteOffset":0,
			"target":34962
		},
		{
			"buffer":0,
			"byteLength":21896,
			"byteOffset":32844,
			"target":34962
		},
		{
			"buffer":0,
			"byteLength":32844,
			"byteOffset":54740,
			"target":34962
		},
		{
			"buffer":0,
			"byteLength":30720,
			"byteOffset":87584,
			"target":34963
		},
		{
			"buffer":0,
			"byteLength":288,
			"byteOffset":118304,
			"target":34962
		},
		{
			"buffer":0,
			"byteLength":192,
			"byteOffset":118592,
			"target":34962
		},
		{
			"buffer":0,
			"byteLength":288,
			"byteOffset":118784,
			"target":34962
		},
		{
			"buffer":0,
			"byteLength":72,
			"byteOffset":119072,
			"target":34963
		},
		{
			"buffer":0,
			"byteLength":1000,
			"byteOffset":119144
		},
		{
			"buffer":0,
			"byteLength":3000,
			"byteOffset":120144
		},
		{
			"buffer":0,
			"byteLength":4000,
			"byteOffset":123144
		},
		{
			"buffer":0,
			"byteLength":3000,
			"byteOffset":127144
		},
		{
			"buffer":0,
			"byteLength":3000,
			"byteOffset":130144
		},
		{
			"buffer":0,
			"byteLength":4000,
			"byteOffset":133144
		},
		{
			"buffer":0,
			"byteLength":3000,
			"byteOffset":137144
		}
	],
	"buffers":[
		{
			"byteLength":140144,
			"uri":"data:application/octet-stream;base64,"
		}
	]
}
