{
	"asset":{
		"generator":"Khronos glTF Blender I/O v4.0.44",
		"version":"2.0"
	},
	"scene":0,
	"scenes":[
		{
			"name":"Scene",
			"nodes":[
				0
			]
		}
	],
	"nodes":[
		{
			"mesh":0,
			"name":"atmo"
		}
	],
	"materials":[
		{
			"doubleSided":true,
			"name":"Material.002",
			"pbrMetallicRoughness":{}
		},
		{
			"doubleSided":true,
			"emissiveFactor":[
				1,
				1,
				1
			],
			"name":"Material.001",
			"pbrMetallicRoughness":{
				"baseColorTexture":{
					"index":0
				},
				"metallicFactor":0,
				"metallicRoughnessTexture":{
					"index":1
				}
			}
		},
		{
			"alphaMode":"BLEND",
			"doubleSided":true,
			"name":"Material.003",
			"pbrMetallicRoughness":{}
		}
	],
	"meshes":[
		{
			"name":"Sphere.001",
			"primitives":[
				{
					"attributes":{
						"POSITION":0,
						"NORMAL":1,
						"TEXCOORD_0":2
					},
					"indices":3,
					"material":0
				},
				{
					"attributes":{
						"POSITION":4,
						"NORMAL":5,
						"TEXCOORD_0":6
					},
					"indices":3,
					"material":1
				},
				{
					"attributes":{
						"POSITION":7,
						"NORMAL":8,
						"TEXCOORD_0":9
					},
					"indices":3,
					"material":2
				}
			]
		}
	],
	"textures":[
		{
			"sampler":0,
			"source":0
		},
		{
			"sampler":0,
			"source":1
		}
	],
	"images":[
		{
			"mimeType":"image/png",
			"name":"earth_landocean_8K",
			"uri":"earth_landocean_8K.png"
		},
		{
			"mimeType":"image/png",
			"name":"earth_landocean_8K",
			"uri":"earth_landocean_8K-1.png"
		}
	],
	"accessors":[
		{
			"bufferView":0,
			"componentType":5126,
			"count":151,
			"max":[
				642.050048828125,
				642.0499267578125,
				642.0501098632812
			],
			"min":[
				-642.0499877929688,
				-642.0499267578125,
				-642.0499267578125
			],
			"type":"VEC3"
		},
		{
			"bufferView":1,
			"componentType":5126,
			"count":151,
			"type":"VEC3"
		},
		{
			"bufferView":2,
			"componentType":5126,
			"count":151,
			"type":"VEC2"
		},
		{
			"bufferView":3,
			"componentType":5123,
			"count":672,
			"type":"SCALAR"
		},
		{
			"bufferView":4,
			"componentType":5126,
			"count":151,
			"max":[
				637.0499877929688,
				637.0499877929688,
				637.050048828125
			],
			"min":[
				-637.0499267578125,
				-637.0499877929688,
				-637.0498657226562
			],
			"type":"VEC3"
		},
		{
			"bufferView":5,
			"componentType":5126,
			"count":151,
			"type":"VEC3"
		},
		{
			"bufferView":6,
			"componentType":5126,
			"count":151,
			"type":"VEC2"
		},
		{
			"bufferView":7,
			"componentType":5126,
			"count":151,
			"max":[
				646.779052734375,
				647.50048828125,
				646.779052734375
			],
			"min":[
				-646.779052734375,
				-647.50048828125,
				-646.7789306640625
			],
			"type":"VEC3"
		},
		{
			"bufferView":8,
			"componentType":5126,
			"count":151,
			"type":"VEC3"
		},
		{
			"bufferView":9,
			"componentType":5126,
			"count":151,
			"type":"VEC2"
		}
	],
	"bufferViews":[
		{
			"buffer":0,
			"byteLength":1812,
			"byteOffset":0,
			"target":34962
		},
		{
			"buffer":0,
			"byteLength":1812,
			"byteOffset":1812,
			"target":34962
		},
		{
			"buffer":0,
			"byteLength":1208,
			"byteOffset":3624,
			"target":34962
		},
		{
			"buffer":0,
			"byteLength":1344,
			"byteOffset":4832,
			"target":34963
		},
		{
			"buffer":0,
			"byteLength":1812,
			"byteOffset":6176,
			"target":34962
		},
		{
			"buffer":0,
			"byteLength":1812,
			"byteOffset":7988,
			"target":34962
		},
		{
			"buffer":0,
			"byteLength":1208,
			"byteOffset":9800,
			"target":34962
		},
		{
			"buffer":0,
			"byteLength":1812,
			"byteOffset":11008,
			"target":34962
		},
		{
			"buffer":0,
			"byteLength":1812,
			"byteOffset":12820,
			"target":34962
		},
		{
			"buffer":0,
			"byteLength":1208,
			"byteOffset":14632,
			"target":34962
		}
	],
	"samplers":[
		{
			"magFilter":9729,
			"minFilter":9987
		}
	],
	"buffers":[
		{
			"byteLength":15840,
			"uri":"Earth.bin"
		}
	]
}
