{
	"asset":{
		"generator":"Khronos glTF Blender I/O v3.5.30",
		"version":"2.0"
	},
	"extensionsUsed":[
		"KHR_materials_ior"
	],
	"scene":0,
	"scenes":[
		{
			"name":"Scene",
			"nodes":[
				1
			]
		}
	],
	"nodes":[
		{
			"mesh":0,
			"name":"model"
		},
		{
			"children":[
				0
			],
			"name":"Scene"
		}
	],
	"materials":[
		{
			"doubleSided":true,
			"extensions":{
				"KHR_materials_specular":{
					"specularColorFactor":[
						0,
						0,
						0
					]
				},
				"KHR_materials_ior":{
					"ior":1.4500000476837158
				}
			},
			"name":"default",
			"pbrMetallicRoughness":{
				"baseColorTexture":{
					"index":0
				},
				"metallicFactor":0,
				"roughnessFactor":0.949999988079071
			}
		}
	],
	"meshes":[
		{
			"name":"Mesh_0",
			"primitives":[
				{
					"attributes":{
						"POSITION":0,
						"TEXCOORD_0":1,
						"NORMAL":2
					},
					"indices":3,
					"material":0
				}
			]
		}
	],
	"textures":[
		{
			"sampler":0,
			"source":0
		}
	],
	"images":[
		{
			"bufferView":4,
			"mimeType":"image/jpeg",
			"name":"Image_0"
		}
	],
	"accessors":[
		{
			"bufferView":0,
			"componentType":5126,
			"count":40541,
			"max":[
				0.7632477879524231,
				0.5566655993461609,
				0.403998464345932
			],
			"min":[
				-0.8033952713012695,
				-0.5487330555915833,
				-0.407023549079895
			],
			"type":"VEC3"
		},
		{
			"bufferView":1,
			"componentType":5126,
			"count":40541,
			"type":"VEC2"
		},
		{
			"bufferView":2,
			"componentType":5126,
			"count":40541,
			"type":"VEC3"
		},
		{
			"bufferView":3,
			"componentType":5123,
			"count":149559,
			"type":"SCALAR"
		}
	],
	"bufferViews":[
		{
			"buffer":0,
			"byteLength":486492,
			"byteOffset":0,
			"target":34962
		},
		{
			"buffer":0,
			"byteLength":324328,
			"byteOffset":486492,
			"target":34962
		},
		{
			"buffer":0,
			"byteLength":486492,
			"byteOffset":810820,
			"target":34962
		},
		{
			"buffer":0,
			"byteLength":299118,
			"byteOffset":1297312,
			"target":34963
		},
		{
			"buffer":0,
			"byteLength":1286120,
			"byteOffset":1596432
		}
	],
	"samplers":[
		{
			"magFilter":9729,
			"minFilter":9987
		}
	],
	"buffers":[
		{
			"byteLength":2882552,
			"uri":"data:application/octet-stream;base64,"
		}
	]
}
